<?xml version="1.0" standalone="no"?>
<!DOCTYPE svg PUBLIC "-//W3C//DTD SVG 20010904//EN"
 "http://www.w3.org/TR/2001/REC-SVG-20010904/DTD/svg10.dtd">
<svg version="1.0" xmlns="http://www.w3.org/2000/svg"
 width="1064.000000pt" height="1064.000000pt" viewBox="0 0 1064.000000 1064.000000"
 preserveAspectRatio="xMidYMid meet">
<metadata>
Created by potrace 1.14, written by Peter Selinger 2001-2017
</metadata>
<g transform="translate(0.000000,1064.000000) scale(0.100000,-0.100000)"
fill="#000000" stroke="none">
<path d="M3880 8744 c-107 -20 -167 -41 -254 -90 -60 -34 -206 -176 -231 -224
-10 -19 -21 -37 -24 -40 -4 -3 -12 -16 -19 -30 -6 -14 -50 -88 -96 -165 -46
-77 -124 -207 -173 -289 -48 -82 -100 -170 -115 -195 -16 -25 -45 -74 -65
-109 -21 -35 -43 -71 -48 -80 -35 -57 -71 -119 -80 -134 -5 -10 -39 -66 -75
-125 -35 -60 -69 -117 -75 -128 -6 -11 -23 -39 -38 -62 -15 -24 -27 -45 -27
-48 0 -3 -8 -18 -19 -33 -27 -40 -48 -76 -49 -85 -1 -4 -8 -15 -17 -23 -8 -9
-15 -21 -15 -29 0 -7 -4 -15 -8 -17 -5 -1 -23 -30 -42 -63 -18 -33 -36 -62
-39 -65 -3 -3 -13 -19 -22 -35 -35 -68 -254 -430 -261 -433 -5 -2 -8 -8 -8
-14 0 -8 -88 -158 -177 -303 -7 -11 -16 -28 -19 -37 -3 -10 -10 -18 -15 -18
-5 0 -8 -3 -7 -7 1 -5 -10 -27 -25 -51 -16 -24 -37 -60 -49 -80 -53 -96 -134
-227 -140 -230 -5 -2 -8 -8 -8 -12 0 -5 -40 -77 -90 -159 -49 -83 -90 -153
-90 -156 0 -3 -5 -11 -10 -18 -10 -11 -112 -180 -253 -420 -69 -116 -58 -98
-177 -297 -57 -96 -113 -191 -123 -210 -11 -19 -25 -42 -33 -51 -8 -8 -14 -18
-14 -20 0 -3 -46 -82 -101 -175 -56 -93 -109 -182 -119 -199 -9 -16 -31 -53
-48 -81 -18 -28 -32 -56 -32 -63 0 -6 -4 -11 -8 -11 -5 0 -17 -18 -27 -40 -10
-22 -21 -40 -25 -40 -4 0 -10 -8 -13 -17 -7 -21 -49 -95 -58 -103 -4 -3 -16
-23 -28 -45 -11 -22 -32 -58 -46 -80 -13 -22 -34 -58 -46 -80 -12 -22 -25 -42
-29 -45 -3 -3 -9 -12 -13 -20 -4 -8 -18 -33 -32 -55 -13 -22 -36 -60 -50 -85
-14 -25 -37 -63 -50 -85 -91 -145 -126 -268 -121 -419 8 -197 93 -372 239
-491 27 -22 54 -45 60 -50 22 -19 112 -64 162 -81 131 -44 89 -43 1530 -43
754 1 1404 5 1445 9 41 4 102 11 135 14 49 6 140 22 328 61 46 10 266 85 327
112 162 73 262 127 379 206 80 54 91 62 121 88 10 9 24 21 33 25 45 26 237
211 312 299 22 27 47 55 55 64 21 23 119 155 160 216 19 28 37 52 42 53 4 2 8
12 8 23 0 10 5 19 10 19 6 0 14 8 18 17 6 15 76 135 112 193 52 83 150 253
150 260 0 6 5 10 10 10 6 0 10 4 10 9 0 5 29 57 65 116 36 59 65 111 65 116 0
5 5 9 10 9 6 0 10 6 10 14 0 7 8 24 18 37 11 13 30 44 44 69 14 25 57 98 97
164 39 65 71 121 71 123 0 2 14 24 30 48 17 24 30 46 30 49 0 5 31 57 77 131
7 11 22 36 33 55 11 19 25 42 30 50 21 32 210 351 210 355 0 2 14 24 30 48 17
25 30 49 30 55 0 6 3 12 8 14 9 4 41 57 49 81 3 9 9 17 14 17 5 0 9 4 9 10 0
5 55 101 122 212 66 112 129 217 138 233 9 17 47 79 83 139 37 59 67 110 67
112 0 7 93 159 108 177 8 9 11 17 6 17 -5 0 -4 4 1 8 6 4 35 49 65 100 30 50
58 92 61 92 4 0 24 -28 43 -62 20 -35 42 -72 49 -83 71 -118 87 -146 87 -155
0 -5 4 -10 8 -10 4 0 18 -19 30 -42 12 -24 58 -103 102 -177 44 -74 80 -138
80 -142 0 -5 4 -9 8 -9 5 0 16 -15 25 -32 9 -18 29 -54 44 -80 15 -25 46 -76
68 -113 22 -37 45 -75 50 -84 6 -9 39 -66 75 -126 35 -61 67 -112 70 -115 3
-3 11 -16 17 -30 7 -14 23 -41 35 -61 13 -20 48 -79 78 -130 30 -52 89 -150
130 -220 42 -69 80 -132 83 -140 4 -8 16 -28 26 -45 132 -217 201 -334 201
-342 0 -6 3 -12 8 -14 4 -1 27 -37 52 -78 25 -41 50 -84 57 -95 6 -11 20 -36
31 -55 10 -19 72 -123 137 -230 65 -107 120 -202 123 -210 3 -8 10 -19 15 -25
5 -5 48 -77 97 -160 49 -82 93 -155 99 -162 7 -8 6 -13 -2 -15 -7 -3 -583 -4
-1280 -4 -697 1 -1277 -2 -1288 -6 -11 -4 -22 -16 -26 -25 -4 -10 -24 -45 -45
-79 -21 -34 -38 -66 -38 -72 0 -6 -3 -12 -8 -14 -8 -3 -82 -125 -82 -135 0 -4
-6 -14 -14 -22 -12 -14 -35 -51 -100 -166 -6 -11 -23 -38 -37 -60 -14 -22 -28
-45 -30 -50 -6 -14 -92 -159 -99 -165 -5 -5 -24 -39 -57 -100 -10 -19 -20 -37
-24 -40 -3 -3 -15 -22 -27 -42 -12 -21 -31 -54 -43 -73 l-21 -35 2024 3 c1112
1 2034 6 2048 9 14 4 36 9 50 12 65 15 185 73 245 119 246 188 340 496 238
779 -12 31 -67 135 -123 230 -57 95 -110 186 -119 203 -9 16 -19 32 -22 35 -3
3 -16 25 -30 50 -13 25 -27 47 -31 48 -5 2 -8 7 -8 11 0 4 -35 66 -78 137 -43
71 -81 136 -86 144 -9 18 -20 37 -181 306 -71 120 -131 223 -133 231 -2 7 -7
13 -12 13 -4 0 -13 15 -21 33 -7 17 -16 34 -20 37 -3 3 -14 19 -23 35 -9 17
-26 44 -36 60 -11 17 -26 42 -32 58 -7 15 -16 27 -20 27 -4 0 -8 4 -8 9 0 8
-115 207 -169 291 -8 14 -14 28 -13 33 1 4 -1 7 -6 7 -4 0 -16 17 -27 38 -11
20 -22 39 -25 42 -3 3 -17 26 -30 53 -14 26 -28 47 -31 47 -3 0 -11 16 -19 35
-8 19 -17 35 -22 35 -4 0 -8 5 -8 11 0 6 -8 23 -19 37 -10 15 -27 43 -37 62
-31 56 -305 512 -328 545 -11 17 -20 32 -20 35 1 3 -9 21 -21 40 -18 29 -93
154 -130 218 -28 48 -144 244 -277 466 -81 136 -148 252 -148 257 0 5 -4 9 -8
9 -7 0 -35 50 -44 78 -1 4 -12 17 -23 30 -11 13 -20 27 -20 30 0 4 -73 129
-162 277 -173 289 -227 358 -338 432 -136 89 -253 123 -418 118 -151 -3 -208
-18 -333 -85 -87 -46 -149 -97 -219 -181 -26 -30 -92 -136 -107 -171 -7 -16
-16 -28 -20 -28 -4 0 -8 -4 -8 -9 0 -4 -31 -60 -69 -122 -37 -63 -128 -215
-202 -339 -74 -124 -139 -234 -146 -245 -7 -11 -17 -31 -23 -45 -6 -13 -15
-27 -19 -30 -4 -3 -19 -25 -33 -50 -49 -87 -72 -125 -81 -131 -5 -3 -8 -10 -8
-15 1 -5 -3 -9 -9 -9 -8 0 -70 88 -70 101 0 3 -15 29 -33 57 -34 53 -182 300
-217 362 -10 18 -30 52 -44 74 -15 22 -26 45 -26 51 0 5 -4 10 -10 10 -5 0
-10 6 -10 14 0 7 -7 19 -15 26 -8 7 -15 20 -15 30 0 10 -7 20 -15 24 -8 3 -15
10 -15 16 0 5 -26 53 -57 105 -32 52 -67 110 -78 129 -11 19 -56 95 -100 168
-44 73 -85 142 -91 153 -59 104 -99 171 -105 175 -3 3 -14 21 -24 40 -10 19
-30 53 -44 75 -14 22 -26 42 -26 45 -1 4 -10 21 -62 105 -58 96 -123 209 -123
216 0 5 -4 9 -10 9 -5 0 -12 11 -16 25 -3 14 -10 25 -15 25 -5 0 -9 4 -9 9 0
15 -109 191 -149 241 -160 199 -433 301 -681 254z m249 -1682 c45 -74 81 -135
81 -137 0 -2 34 -58 75 -125 41 -67 75 -124 75 -126 0 -2 12 -23 27 -47 15
-23 28 -44 28 -47 0 -3 8 -16 17 -30 40 -61 158 -263 158 -271 0 -5 4 -9 9 -9
5 0 11 -8 14 -17 6 -19 24 -50 112 -194 30 -50 55 -92 55 -94 0 -3 16 -29 35
-59 19 -30 35 -60 35 -66 0 -5 4 -10 8 -10 4 0 18 -19 30 -42 12 -24 26 -50
32 -58 25 -38 110 -182 110 -187 0 -3 8 -17 19 -31 16 -24 36 -56 75 -127 6
-11 23 -38 37 -60 14 -22 49 -81 78 -131 l52 -91 -49 -79 c-27 -43 -52 -86
-56 -94 -7 -16 -22 -40 -47 -80 -42 -65 -314 -526 -317 -537 -2 -7 -8 -13 -13
-13 -5 0 -9 -5 -9 -11 0 -9 -42 -83 -120 -209 -22 -35 -85 -146 -89 -155 -2
-5 -8 -14 -13 -20 -16 -18 -78 -127 -78 -136 0 -5 -4 -9 -9 -9 -5 0 -14 -12
-20 -27 -15 -39 -51 -97 -62 -101 -5 -2 -9 -8 -9 -13 0 -5 -17 -33 -37 -61
-236 -333 -477 -505 -818 -584 -38 -9 -86 -18 -105 -20 -19 -2 -60 -6 -90 -10
-55 -6 -1909 -13 -1922 -7 -5 3 15 42 52 103 47 76 90 152 90 160 0 6 4 10 10
10 5 0 12 11 16 25 3 14 9 25 13 25 3 0 17 21 31 48 13 26 35 62 48 80 14 17
20 32 16 32 -5 0 -4 4 1 8 11 7 35 45 83 132 13 25 31 52 38 61 8 8 14 21 14
27 0 7 5 12 10 12 6 0 10 4 10 9 0 12 83 155 92 159 5 2 8 7 8 12 0 5 23 45
50 90 28 45 50 83 50 84 0 2 36 62 80 135 44 72 80 136 80 141 0 6 4 10 9 10
5 0 13 10 17 23 3 12 16 35 28 52 11 16 29 45 39 64 10 19 31 52 45 75 15 23
31 50 38 61 13 25 71 123 87 150 68 111 87 143 87 149 0 4 5 12 11 19 11 13
364 602 376 627 4 8 28 50 55 92 26 43 48 80 48 84 0 3 14 25 30 49 17 24 30
48 30 54 0 6 4 11 10 11 5 0 9 3 8 8 -1 4 14 33 35 65 20 31 37 60 37 63 0 3
16 30 35 60 19 30 35 59 35 64 0 6 5 10 10 10 6 0 10 4 10 9 0 13 73 135 82
139 5 2 8 8 8 13 0 5 17 37 38 71 21 35 41 70 45 78 10 21 234 393 244 405 5
6 12 17 15 26 4 9 36 65 72 124 36 59 66 110 66 113 0 3 10 19 23 36 13 17 29
46 36 64 8 17 17 32 22 32 4 0 11 10 15 23 4 12 14 32 22 45 14 22 14 22 37
-20 13 -24 59 -103 104 -176z"/>
</g>
</svg>
